<?xml version="1.0" encoding="utf-8"?>
<svg class="img-fluid" id="outputsvg" xmlns="http://www.w3.org/2000/svg" style="transform: matrix(1.01591, 0, 0, 1.01591, 0, 0); transform-origin: 50% 50%; cursor: move; max-height: none; transition: transform 200ms ease-in-out;" width="808" height="270" viewBox="0 0 8080 2700">
  <g id="l3ZILQgSdea8vQGoLqym8L7" fill="rgb(255,255,255)" style="transform: none;">
    <g style="transform: none;"/>
  </g>
  <path style="stroke: rgb(0, 0, 0); fill: rgb(255, 252, 252);" d="M 844.237 1164.37 C 1077.26 1164.37 1312.11 1172.72 1543.79 1172.72 C 1556.93 1172.72 1761.36 1165.2 1762.5 1168.62 C 1784.22 1234.23 1757.29 1340.56 1757.29 1409.59 C 1757.29 1663.25 1705.25 2203.31 1375.38 2248.07 C 1325.36 2254.84 1241.91 2282.14 1192.76 2261.22 C 986.822 2173.51 909.87 1724.84 893.196 1526.79 C 882.01 1393.91 808.315 1258.87 895.002 1159.18"/>
  <g id="l5SRigTXlv1Ls7Fe0R5aWEJ" fill="rgb(58,72,79)" style="" transform="matrix(1, 0, 0, 1, 0, -46)">
    <g style="transform: none;">
      <path id="p13V5xHeZU" d="M4238 2519 c-47 -11 -108 -50 -134 -87 -46 -63 -49 -84 -49 -347 l0 -250 70 0 70 0 5 242 c5 225 6 243 26 270 43 58 148 66 206 14 41 -37 47 -77 48 -319 l0 -213 68 3 67 3 0 250 c0 242 -1 252 -23 297 -58 118 -201 173 -354 137z" style="fill: rgb(255, 255, 255);"/>
      <path id="p1D3Sjtukc" d="M5873 2516 c-60 -20 -118 -69 -145 -124 -22 -45 -23 -55 -23 -302 l0 -255 70 0 70 0 5 240 c5 246 8 262 49 299 29 26 125 28 163 3 53 -36 58 -64 58 -316 l0 -232 73 3 72 3 0 245 c0 236 -1 247 -24 298 -26 57 -75 106 -130 129 -50 21 -186 26 -238 9z" style="fill: rgb(255, 255, 255);"/>
      <path id="pIjxsMy3B" d="M7462 2516 c-111 -28 -216 -131 -243 -239 -17 -68 -7 -191 20 -253 27 -63 98 -134 171 -171 50 -26 64 -28 165 -28 99 0 116 3 168 27 31 15 57 30 57 33 0 4 -10 29 -21 56 -17 38 -26 48 -38 43 -130 -54 -244 -44 -317 30 -103 102 -78 297 47 361 41 22 130 29 173 15 l36 -12 0 -63 0 -64 -57 -3 -58 -3 0 -55 0 -55 125 0 125 0 0 169 0 169 -65 24 c-80 30 -211 39 -288 19z" style="fill: rgb(255, 255, 255);"/>
      <path id="p11dngDmFZ" d="M2630 2169 l0 -342 164 5 c154 4 167 6 220 32 93 46 135 140 107 242 -10 39 -65 101 -115 129 -15 9 -8 24 68 138 47 70 86 130 86 132 0 3 -35 5 -79 5 l-78 0 -55 -87 c-30 -49 -65 -105 -77 -125 -19 -32 -28 -38 -57 -38 l-34 0 0 125 0 125 -75 0 -75 0 0 -341z m315 -45 c32 -21 52 -83 36 -113 -19 -35 -56 -52 -130 -58 l-71 -6 0 101 0 102 70 -5 c41 -3 81 -12 95 -21z" style="fill: rgb(255, 255, 255);"/>
      <path id="pqABixon7" d="M3290 2505 c0 -6 136 -365 217 -572 l36 -93 72 0 c46 0 76 5 83 13 10 12 140 350 213 550 l39 107 -79 0 -78 0 -24 -72 -24 -73 -127 -3 -126 -3 -24 73 -25 73 -76 3 c-42 2 -77 0 -77 -3z m410 -270 c0 -11 -43 -140 -76 -225 -3 -8 -24 37 -48 105 -24 66 -41 123 -39 128 2 4 40 7 84 7 62 0 79 -3 79 -15z" style="fill: rgb(255, 255, 255);"/>
      <path id="p2wsoUhoe" d="M4797 2363 c2 -82 8 -231 11 -333 l7 -185 91 -3 90 -3 26 63 c14 35 49 120 78 191 29 70 56 127 60 127 7 0 24 -38 115 -262 l48 -118 92 0 92 0 7 218 c3 119 9 270 13 335 l6 117 -71 0 -72 0 -1 -82 c-1 -46 -4 -153 -8 -238 l-6 -155 -28 60 c-16 33 -51 115 -80 183 l-51 122 -57 0 -57 0 -73 -172 c-40 -95 -76 -177 -80 -181 -3 -5 -10 98 -14 227 l-7 236 -68 0 -68 0 5 -147z" style="fill: rgb(255, 255, 255);"/>
      <path id="p188Sh0Auk" d="M6450 2170 l0 -340 65 0 c50 0 69 4 79 18 21 25 149 199 236 322 l75 104 5 -219 5 -220 65 0 65 0 3 338 2 337 -67 0 -68 0 -150 -206 c-82 -113 -155 -213 -162 -222 -10 -14 -12 28 -13 206 l0 222 -70 0 -70 0 0 -340z" style="fill: rgb(255, 255, 255);"/>
      <path id="pLDPPZr3D" d="M3460 1814 c-8 -8 -13 -28 -13 -44 0 -41 19 -60 63 -60 62 0 95 65 52 103 -23 21 -85 22 -102 1z" style="fill: rgb(255, 255, 255);"/>
      <path id="poUPb4yyz" d="M3671 1811 c-25 -25 -27 -49 -5 -79 13 -19 24 -22 57 -20 33 2 44 9 57 31 13 24 13 30 0 55 -21 36 -79 43 -109 13z" style="fill: rgb(255, 255, 255);"/>
      <path id="pZNlOxHZR" d="M3676 1629 c-118 -17 -206 -83 -247 -185 -23 -57 -23 -68 -24 -364 l0 -305 90 0 90 0 5 297 c5 280 6 298 26 324 54 72 138 93 219 54 79 -38 80 -42 83 -382 l3 -298 90 0 89 0 0 298 c0 320 -5 362 -53 432 -66 99 -214 150 -371 129z" style="fill: rgb(255, 255, 255);"/>
      <path id="p14WOs07gX" d="M2630 1189 l0 -421 198 5 c232 5 271 15 342 86 104 104 91 291 -25 371 -24 17 -48 30 -54 30 -28 0 -13 32 84 180 58 89 105 163 105 166 0 2 -46 4 -103 4 l-102 0 -90 -155 -90 -155 -37 0 -38 0 0 155 0 155 -95 0 -95 0 0 -421z m371 -52 c48 -32 67 -89 46 -139 -24 -57 -56 -72 -151 -73 l-81 0 -3 118 -3 117 79 0 c66 0 85 -4 113 -23z" style="fill: rgb(255, 255, 255);"/>
      <path id="p127ECLpVN" d="M4301 1298 c1 -172 5 -360 8 -417 l6 -104 105 2 c79 1 108 5 116 17 6 8 51 107 99 220 69 162 90 202 98 189 5 -10 45 -105 88 -213 43 -108 82 -199 86 -203 5 -4 58 -9 118 -10 l110 -2 6 94 c4 52 7 239 8 417 l1 322 -85 0 -85 0 0 -297 c0 -169 -4 -293 -9 -287 -8 9 -38 75 -134 302 l-52 122 -64 -2 -63 -3 -92 -213 -91 -212 -3 295 -2 295 -86 0 -85 0 2 -312z" style="fill: rgb(255, 255, 255);"/>
      <path id="pkDNTHD6u" d="M5356 1601 c-3 -4 -4 -192 -3 -417 l2 -409 190 0 c217 1 269 12 337 73 63 57 82 103 82 197 0 91 -14 127 -72 188 -51 53 -125 78 -249 84 l-103 6 0 143 0 144 -89 0 c-50 0 -92 -4 -95 -9z m375 -454 c39 -26 62 -81 53 -127 -14 -66 -77 -100 -186 -100 l-57 0 -3 121 c-2 66 -1 123 1 125 2 2 39 4 81 4 64 0 83 -4 111 -23z" style="fill: rgb(255, 255, 255);"/>
      <path id="pxVQd52tC" d="M6120 1190 l0 -420 255 0 255 0 0 80 0 80 -165 0 -165 0 0 90 0 90 145 0 145 0 0 75 0 75 -145 0 -145 0 0 100 0 100 170 0 170 0 0 75 0 75 -260 0 -260 0 0 -420z" style="fill: rgb(255, 255, 255);"/>
      <path id="phdiwBIoH" d="M6810 1190 l0 -421 93 3 92 3 2 340 2 340 160 3 161 2 0 75 0 75 -255 0 -255 0 0 -420z" style="fill: rgb(255, 255, 255);"/>
      <path id="pz4oJpbCm" d="M3583 720 c-47 -19 -59 -101 -20 -138 34 -32 100 -30 132 3 69 68 -17 173 -112 135z" style="fill: rgb(255, 255, 255);"/>
      <path id="p2Fjo7RXl" d="M3844 718 c-47 -22 -57 -95 -19 -133 31 -32 91 -34 129 -4 20 16 26 29 26 60 0 72 -68 110 -136 77z" style="fill: rgb(255, 255, 255);"/>
    </g>
  </g>
  <g id="l35ehMLNWigZnIDYJHWO940" fill="rgb(41,73,64)" style="transform: none;">
    <g style="transform: none;">
      <path id="p1DXflHWxm" d="M1218 2267 c-155 -65 -306 -257 -360 -454 -18 -68 -21 -114 -25 -359 -5 -277 -5 -282 16 -303 21 -21 27 -21 459 -21 388 0 440 2 461 16 l23 17 -5 291 c-5 330 -8 351 -85 506 -38 78 -61 110 -132 181 -136 137 -238 174 -352 126z m127 -61 c27 -12 35 -21 35 -40 0 -18 9 -30 29 -40 44 -23 154 -148 190 -216 33 -62 71 -177 71 -216 0 -13 8 -24 20 -27 17 -4 20 -14 20 -71 0 -52 -3 -66 -15 -66 -13 0 -15 -23 -15 -145 l0 -145 -150 0 c-127 0 -150 -2 -150 -15 0 -12 -14 -15 -70 -15 -56 0 -70 3 -70 15 0 13 -23 15 -150 15 l-150 0 0 145 c0 122 -2 145 -15 145 -12 0 -15 14 -15 65 0 58 2 65 20 65 15 0 20 7 20 28 1 125 115 329 237 423 39 31 53 48 51 63 -2 16 5 24 32 33 19 6 36 12 38 12 1 1 18 -6 37 -13z" style="fill: rgb(255, 255, 255);"/>
      <path id="pHEDtGQGJ" d="M519 2461 c-46 -15 -69 -31 -86 -64 -17 -29 -18 -77 -18 -602 0 -465 3 -576 14 -603 8 -20 60 -74 130 -135 645 -568 692 -608 726 -614 69 -11 42 -31 600 461 50 44 136 119 192 168 55 49 108 104 117 122 14 30 16 103 16 598 0 530 -1 565 -19 598 -10 19 -34 44 -52 55 -33 19 -54 20 -814 22 -429 1 -792 -2 -806 -6z m881 -96 c24 -8 66 -32 94 -53 l51 -37 235 -5 235 -5 3 -497 2 -496 -192 -169 c-105 -92 -215 -188 -244 -213 -29 -25 -100 -87 -158 -138 -58 -50 -111 -92 -118 -92 -7 1 -27 13 -44 28 -17 15 -173 152 -348 305 l-316 279 2 496 3 497 230 5 230 5 65 41 c36 22 79 46 95 52 44 15 126 14 175 -3z" style="fill: rgb(255, 255, 255);"/>
    </g>
  </g>
  <g id="l3yQv4CaMVIxAC3mhnA4q81" fill="rgb(204,61,52)" style="transform: none;">
    <g style="transform: none;">
      <path id="peCqtk1c8" d="M1164 2146 c-134 -100 -222 -261 -248 -449 l-5 -37 162 2 162 3 3 254 c1 140 -2 259 -6 263 -5 5 -35 -11 -68 -36z"/>
      <path id="p19aQLeIye" d="M1380 1925 l0 -266 166 2 165 2 -6 41 c-13 81 -39 162 -73 229 -40 78 -151 201 -211 235 l-41 23 0 -266z"/>
      <path id="prU7KQRiN" d="M910 1370 l0 -160 165 0 165 0 0 160 0 160 -165 0 -165 0 0 -160z"/>
      <path id="pK5uC9EkO" d="M1380 1370 l0 -160 165 0 165 0 0 160 0 160 -165 0 -165 0 0 -160z"/>
    </g>
  </g>
</svg>