<svg xmlns="http://www.w3.org/2000/svg" version="1.1" xmlns:xlink="http://www.w3.org/1999/xlink" width="1000" height="1000"><style>
    #light-icon {
      display: inline;
    }
    #dark-icon {
      display: none;
    }

    @media (prefers-color-scheme: dark) {
      #light-icon {
        display: none;
      }
      #dark-icon {
        display: inline;
      }
    }
  </style><g id="light-icon"><svg xmlns="http://www.w3.org/2000/svg" version="1.1" xmlns:xlink="http://www.w3.org/1999/xlink" width="1000" height="1000"><g><g transform="matrix(4.9504950495049505,0,0,4.9504950495049505,56.930693069306926,0)"><svg xmlns="http://www.w3.org/2000/svg" version="1.1" xmlns:xlink="http://www.w3.org/1999/xlink" width="179.5px" height="202.803px"><svg xmlns="http://www.w3.org/2000/svg" viewBox="415 439.1599 1795 2028.0339" width="179.5px" height="202.803px">
  <path style="stroke: rgb(0, 0, 0); fill: rgb(255, 252, 252);" d="M 844.237 1164.37 C 1077.26 1164.37 1312.11 1172.72 1543.79 1172.72 C 1556.93 1172.72 1761.36 1165.2 1762.5 1168.62 C 1784.22 1234.23 1757.29 1340.56 1757.29 1409.59 C 1757.29 1663.25 1705.25 2203.31 1375.38 2248.07 C 1325.36 2254.84 1241.91 2282.14 1192.76 2261.22 C 986.822 2173.51 909.87 1724.84 893.196 1526.79 C 882.01 1393.91 808.315 1258.87 895.002 1159.18" transform="matrix(1, 0, 0, 1, -2.2737367544323206e-13, -1.1368683772161603e-13)"></path>
  <g id="l35ehMLNWigZnIDYJHWO940" fill="rgb(41,73,64)" style="" transform="matrix(1, 0, 0, 1, -2.2737367544323206e-13, -1.1368683772161603e-13)">
    <g style="transform: none;">
      <path id="p1DXflHWxm" d="M1218 2267 c-155 -65 -306 -257 -360 -454 -18 -68 -21 -114 -25 -359 -5 -277 -5 -282 16 -303 21 -21 27 -21 459 -21 388 0 440 2 461 16 l23 17 -5 291 c-5 330 -8 351 -85 506 -38 78 -61 110 -132 181 -136 137 -238 174 -352 126z m127 -61 c27 -12 35 -21 35 -40 0 -18 9 -30 29 -40 44 -23 154 -148 190 -216 33 -62 71 -177 71 -216 0 -13 8 -24 20 -27 17 -4 20 -14 20 -71 0 -52 -3 -66 -15 -66 -13 0 -15 -23 -15 -145 l0 -145 -150 0 c-127 0 -150 -2 -150 -15 0 -12 -14 -15 -70 -15 -56 0 -70 3 -70 15 0 13 -23 15 -150 15 l-150 0 0 145 c0 122 -2 145 -15 145 -12 0 -15 14 -15 65 0 58 2 65 20 65 15 0 20 7 20 28 1 125 115 329 237 423 39 31 53 48 51 63 -2 16 5 24 32 33 19 6 36 12 38 12 1 1 18 -6 37 -13z"></path>
      <path id="pHEDtGQGJ" d="M519 2461 c-46 -15 -69 -31 -86 -64 -17 -29 -18 -77 -18 -602 0 -465 3 -576 14 -603 8 -20 60 -74 130 -135 645 -568 692 -608 726 -614 69 -11 42 -31 600 461 50 44 136 119 192 168 55 49 108 104 117 122 14 30 16 103 16 598 0 530 -1 565 -19 598 -10 19 -34 44 -52 55 -33 19 -54 20 -814 22 -429 1 -792 -2 -806 -6z m881 -96 c24 -8 66 -32 94 -53 l51 -37 235 -5 235 -5 3 -497 2 -496 -192 -169 c-105 -92 -215 -188 -244 -213 -29 -25 -100 -87 -158 -138 -58 -50 -111 -92 -118 -92 -7 1 -27 13 -44 28 -17 15 -173 152 -348 305 l-316 279 2 496 3 497 230 5 230 5 65 41 c36 22 79 46 95 52 44 15 126 14 175 -3z" style=""></path>
    </g>
  </g>
  <g id="l3yQv4CaMVIxAC3mhnA4q81" fill="rgb(204,61,52)" style="" transform="matrix(1, 0, 0, 1, -2.2737367544323206e-13, -1.1368683772161603e-13)">
    <g style="transform: none;">
      <path id="peCqtk1c8" d="M1164 2146 c-134 -100 -222 -261 -248 -449 l-5 -37 162 2 162 3 3 254 c1 140 -2 259 -6 263 -5 5 -35 -11 -68 -36z"></path>
      <path id="p19aQLeIye" d="M1380 1925 l0 -266 166 2 165 2 -6 41 c-13 81 -39 162 -73 229 -40 78 -151 201 -211 235 l-41 23 0 -266z"></path>
      <path id="prU7KQRiN" d="M910 1370 l0 -160 165 0 165 0 0 160 0 160 -165 0 -165 0 0 -160z"></path>
      <path id="pK5uC9EkO" d="M1380 1370 l0 -160 165 0 165 0 0 160 0 160 -165 0 -165 0 0 -160z"></path>
    </g>
  </g>
</svg></svg></g></g></svg></g><g id="dark-icon"><svg xmlns="http://www.w3.org/2000/svg" version="1.1" xmlns:xlink="http://www.w3.org/1999/xlink" width="1000" height="1000"><g><g transform="matrix(4.9504950495049505,0,0,4.9504950495049505,56.930693069306926,0)"><svg xmlns="http://www.w3.org/2000/svg" version="1.1" xmlns:xlink="http://www.w3.org/1999/xlink" width="179.5px" height="202.803px"><svg xmlns="http://www.w3.org/2000/svg" viewBox="415 439.1599 1795 2028.0339" width="179.5px" height="202.803px">
  <path style="stroke: rgb(0, 0, 0); fill: rgb(255, 252, 252);" d="M 844.237 1164.37 C 1077.26 1164.37 1312.11 1172.72 1543.79 1172.72 C 1556.93 1172.72 1761.36 1165.2 1762.5 1168.62 C 1784.22 1234.23 1757.29 1340.56 1757.29 1409.59 C 1757.29 1663.25 1705.25 2203.31 1375.38 2248.07 C 1325.36 2254.84 1241.91 2282.14 1192.76 2261.22 C 986.822 2173.51 909.87 1724.84 893.196 1526.79 C 882.01 1393.91 808.315 1258.87 895.002 1159.18"></path>
  <path id="p1DXflHWxm" d="M1218 2267 c-155 -65 -306 -257 -360 -454 -18 -68 -21 -114 -25 -359 -5 -277 -5 -282 16 -303 21 -21 27 -21 459 -21 388 0 440 2 461 16 l23 17 -5 291 c-5 330 -8 351 -85 506 -38 78 -61 110 -132 181 -136 137 -238 174 -352 126z m127 -61 c27 -12 35 -21 35 -40 0 -18 9 -30 29 -40 44 -23 154 -148 190 -216 33 -62 71 -177 71 -216 0 -13 8 -24 20 -27 17 -4 20 -14 20 -71 0 -52 -3 -66 -15 -66 -13 0 -15 -23 -15 -145 l0 -145 -150 0 c-127 0 -150 -2 -150 -15 0 -12 -14 -15 -70 -15 -56 0 -70 3 -70 15 0 13 -23 15 -150 15 l-150 0 0 145 c0 122 -2 145 -15 145 -12 0 -15 14 -15 65 0 58 2 65 20 65 15 0 20 7 20 28 1 125 115 329 237 423 39 31 53 48 51 63 -2 16 5 24 32 33 19 6 36 12 38 12 1 1 18 -6 37 -13z" style="fill: rgb(255, 255, 255);"></path>
  <g id="l35ehMLNWigZnIDYJHWO940" fill="rgb(41,73,64)" style="">
    <g style="transform: none;">
      <path id="pHEDtGQGJ" d="M519 2461 c-46 -15 -69 -31 -86 -64 -17 -29 -18 -77 -18 -602 0 -465 3 -576 14 -603 8 -20 60 -74 130 -135 645 -568 692 -608 726 -614 69 -11 42 -31 600 461 50 44 136 119 192 168 55 49 108 104 117 122 14 30 16 103 16 598 0 530 -1 565 -19 598 -10 19 -34 44 -52 55 -33 19 -54 20 -814 22 -429 1 -792 -2 -806 -6z m881 -96 c24 -8 66 -32 94 -53 l51 -37 235 -5 235 -5 3 -497 2 -496 -192 -169 c-105 -92 -215 -188 -244 -213 -29 -25 -100 -87 -158 -138 -58 -50 -111 -92 -118 -92 -7 1 -27 13 -44 28 -17 15 -173 152 -348 305 l-316 279 2 496 3 497 230 5 230 5 65 41 c36 22 79 46 95 52 44 15 126 14 175 -3z" style="fill: rgb(255, 255, 255);"></path>
    </g>
  </g>
  <g id="l3yQv4CaMVIxAC3mhnA4q81" fill="rgb(204,61,52)" style="">
    <g style="transform: none;">
      <path id="peCqtk1c8" d="M1164 2146 c-134 -100 -222 -261 -248 -449 l-5 -37 162 2 162 3 3 254 c1 140 -2 259 -6 263 -5 5 -35 -11 -68 -36z"></path>
      <path id="p19aQLeIye" d="M1380 1925 l0 -266 166 2 165 2 -6 41 c-13 81 -39 162 -73 229 -40 78 -151 201 -211 235 l-41 23 0 -266z"></path>
      <path id="prU7KQRiN" d="M910 1370 l0 -160 165 0 165 0 0 160 0 160 -165 0 -165 0 0 -160z"></path>
      <path id="pK5uC9EkO" d="M1380 1370 l0 -160 165 0 165 0 0 160 0 160 -165 0 -165 0 0 -160z"></path>
    </g>
  </g>
</svg></svg></g></g></svg></g></svg>